<?xml version="1.0" standalone="no"?>
<!DOCTYPE svg PUBLIC "-//W3C//DTD SVG 20010904//EN"
 "http://www.w3.org/TR/2001/REC-SVG-20010904/DTD/svg10.dtd">
<svg version="1.0" xmlns="http://www.w3.org/2000/svg"
 width="256.000000pt" height="256.000000pt" viewBox="0 0 256.000000 256.000000"
 preserveAspectRatio="xMidYMid meet">
<metadata>
Created by potrace 1.16, written by Peter Selinger 2001-2019
</metadata>
<g transform="translate(0.000000,256.000000) scale(0.100000,-0.100000)"
fill="#000000" stroke="none">
<path d="M0 1280 l0 -1280 1280 0 1280 0 0 1280 0 1280 -1280 0 -1280 0 0
-1280z m1728 1253 c-27 -2 -69 -2 -95 0 -27 2 -5 3 47 3 52 0 74 -1 48 -3z
m247 -39 c148 -25 298 -72 308 -98 15 -39 -37 -211 -88 -288 -28 -42 -31 -53
-12 -42 6 4 9 4 5 0 -3 -4 -8 -6 -11 -4 -7 5 -47 -34 -47 -46 0 -6 5 -5 12 2
7 7 16 12 22 12 5 0 1 -6 -9 -14 -11 -8 -23 -12 -27 -10 -3 2 -36 -28 -72 -68
-61 -66 -106 -142 -137 -226 -9 -25 -16 -31 -28 -26 -136 59 -327 78 -451 46
l-75 -20 -35 33 c-19 18 -42 31 -50 28 -12 -4 -12 -3 -2 5 12 8 11 15 -3 41
-9 18 -27 84 -40 147 -13 63 -38 146 -55 183 -34 73 -119 169 -139 156 -7 -4
-10 -1 -9 7 2 7 -5 12 -14 12 -10 -1 -15 3 -11 9 4 6 0 8 -10 4 -11 -4 -14 -2
-11 7 3 8 32 26 65 41 138 62 306 107 464 126 96 11 351 2 460 -17z m-650 -2
c-3 -3 -11 0 -18 7 -9 10 -8 11 6 5 10 -3 15 -9 12 -12z m-397 -275 c80 -38
134 -130 162 -275 28 -144 41 -175 107 -259 33 -42 33 -43 13 -55 -11 -7 -20
-16 -20 -21 0 -4 5 -5 12 -1 7 4 8 3 4 -4 -4 -6 -13 -9 -20 -6 -17 7 -117
-103 -142 -156 -17 -36 -22 -40 -44 -35 -14 4 -33 7 -42 8 -9 1 -16 6 -15 12
1 5 -5 10 -14 10 -9 0 -36 18 -60 40 -24 21 -36 36 -26 32 30 -11 18 9 -35 62
-49 47 -79 67 -62 39 4 -7 3 -8 -5 -4 -6 4 -9 11 -6 16 8 12 -33 33 -47 24 -7
-5 -8 -3 -3 6 6 10 4 12 -9 7 -10 -4 -15 -3 -11 3 3 6 -6 15 -22 21 -46 18
-184 41 -214 37 -16 -3 -29 -3 -29 -1 0 3 15 37 33 76 68 148 188 299 325 413
70 58 73 58 170 11z m-218 -31 c0 -2 -8 -10 -17 -17 -16 -13 -17 -12 -4 4 13
16 21 21 21 13z m-80 -80 c0 -2 -8 -10 -17 -17 -16 -13 -17 -12 -4 4 13 16 21
21 21 13z m1450 -170 c0 -2 -8 -10 -17 -17 -16 -13 -17 -12 -4 4 13 16 21 21
21 13z m-759 -213 c13 -16 12 -17 -3 -4 -10 7 -18 15 -18 17 0 8 8 3 21 -13z
m287 10 c-10 -2 -26 -2 -35 0 -10 3 -2 5 17 5 19 0 27 -2 18 -5z m163 -149
l75 -24 -66 -67 c-47 -49 -74 -87 -95 -136 -22 -51 -33 -66 -45 -61 -8 4 -49
9 -91 11 -62 5 -84 2 -123 -16 -26 -11 -45 -25 -42 -30 4 -5 1 -13 -5 -17 -8
-4 -9 -3 -5 4 12 19 -6 14 -31 -10 -32 -30 -29 -44 5 -23 24 16 25 16 11 1 -9
-10 -22 -18 -30 -19 -28 -5 -38 -18 -49 -70 -27 -120 50 -227 163 -227 105 0
179 117 113 179 -19 18 -31 22 -51 17 -24 -6 -26 -10 -21 -39 5 -26 2 -35 -14
-45 -25 -15 -50 -4 -69 32 -19 34 5 93 49 123 32 23 114 30 126 12 3 -5 13 -9
22 -9 25 0 80 -54 97 -95 31 -73 5 -197 -53 -249 -12 -10 -20 -22 -17 -25 2
-4 -4 -7 -13 -8 -9 -1 -37 -9 -62 -18 -60 -23 -169 -16 -227 13 -51 27 -54 27
-46 5 3 -10 3 -15 -1 -11 -4 3 -9 14 -10 25 -2 10 -10 18 -19 18 -19 0 -68 45
-62 56 3 4 -10 36 -29 71 -45 81 -62 183 -47 271 29 166 158 316 315 367 105
34 225 32 347 -6z m-602 -30 c-13 -14 -33 -30 -44 -36 -11 -6 -2 6 20 25 47
43 58 48 24 11z m699 1 c-3 -3 -9 2 -12 12 -6 14 -5 15 5 6 7 -7 10 -15 7 -18z
m-1254 -19 c41 -20 90 -59 151 -121 64 -63 110 -99 151 -119 l59 -28 1 -144
c1 -79 -3 -141 -7 -138 -4 2 -25 -3 -46 -12 -29 -12 -75 -17 -188 -18 -169 -3
-226 -18 -311 -82 l-44 -34 -9 24 c-32 83 -61 268 -61 387 0 49 7 138 16 195
20 125 19 125 144 121 71 -2 95 -7 144 -31z m137 -63 c13 -16 12 -17 -3 -4
-10 7 -18 15 -18 17 0 8 8 3 21 -13z m1288 -33 c147 -117 250 -332 251 -525
l0 -79 -43 42 c-48 47 -63 53 -47 20 11 -22 10 -22 -4 -4 -9 10 -13 23 -10 27
7 13 -58 50 -79 45 -9 -2 -15 -1 -12 3 10 17 -56 34 -152 39 l-101 5 -7 41
c-8 53 -38 112 -54 108 -7 -1 -10 2 -6 8 3 5 -1 23 -11 39 -16 27 -16 30 10
84 33 66 100 137 158 166 24 11 46 21 50 21 3 0 29 -18 57 -40z m-1218 -57
c13 -16 12 -17 -3 -4 -17 13 -22 21 -14 21 2 0 10 -8 17 -17z m-524 -175 c-2
-24 -4 -5 -4 42 0 47 2 66 4 43 2 -24 2 -62 0 -85z m1276 85 c-7 -2 -19 -2
-25 0 -7 3 -2 5 12 5 14 0 19 -2 13 -5z m-486 -155 c-2 -13 -4 -5 -4 17 -1 22
1 32 4 23 2 -10 2 -28 0 -40z m343 38 c0 -2 -8 -10 -17 -17 -16 -13 -17 -12
-4 4 13 16 21 21 21 13z m-53 -108 c-3 -7 -5 -2 -5 12 0 14 2 19 5 13 2 -7 2
-19 0 -25z m130 -40 c-3 -8 -6 -5 -6 6 -1 11 2 17 5 13 3 -3 4 -12 1 -19z
m320 -20 c-3 -8 -6 -5 -6 6 -1 11 2 17 5 13 3 -3 4 -12 1 -19z m60 -14 c-3 -3
-12 -4 -19 -1 -8 3 -5 6 6 6 11 1 17 -2 13 -5z m-430 -80 c-3 -3 -12 -4 -19
-1 -8 3 -5 6 6 6 11 1 17 -2 13 -5z m-417 -35 c0 -17 79 -111 122 -144 43 -35
48 -62 18 -119 -10 -22 -17 -42 -15 -46 2 -4 -10 -20 -27 -36 -17 -16 -28 -23
-24 -16 4 6 3 12 -2 12 -12 0 -53 -45 -47 -51 2 -3 -11 -21 -30 -39 -19 -19
-35 -30 -35 -25 0 4 -9 0 -20 -10 -21 -19 -28 -41 -8 -29 7 4 8 3 4 -5 -4 -6
-11 -9 -16 -6 -10 6 -54 -65 -71 -116 -15 -44 -13 -43 -43 -24 -14 9 -31 13
-38 9 -7 -4 -10 -4 -6 1 8 9 -9 35 -23 35 -5 0 -6 -8 -2 -17 3 -10 3 -15 -1
-11 -4 3 -8 13 -10 21 -2 19 -25 47 -38 47 -5 0 -6 -6 -2 -12 5 -9 2 -8 -9 1
-10 8 -15 16 -12 19 7 8 -86 102 -96 97 -4 -3 -13 3 -20 12 -10 12 -10 14 -1
9 6 -4 12 -3 12 2 0 13 -28 36 -47 38 -8 2 -18 6 -21 10 -4 4 1 4 11 1 24 -9
22 -5 -22 61 -65 96 -84 141 -69 160 31 39 66 66 117 90 46 21 73 25 205 31
136 6 158 10 202 33 58 30 64 31 64 17z m1002 -21 c69 -32 131 -87 175 -155
l33 -52 -21 -58 c-23 -61 -65 -137 -105 -190 -27 -35 -31 -48 -11 -37 7 4 9 3
4 -2 -5 -5 -10 -7 -13 -4 -6 8 -124 -112 -118 -121 2 -4 -1 -11 -7 -15 -8 -4
-9 -3 -5 4 4 7 3 12 -3 12 -11 0 -24 -18 -27 -38 -2 -8 -6 -17 -10 -20 -4 -4
-4 1 -1 10 8 22 3 22 -28 2 -14 -9 -22 -20 -19 -25 3 -5 -1 -6 -9 -3 -8 3 -35
-6 -61 -20 -25 -13 -46 -21 -46 -16 0 5 4 11 9 14 9 6 15 33 32 145 18 122
-20 281 -92 382 l-21 29 44 49 c24 27 52 66 63 87 11 22 24 43 30 47 21 17
150 1 207 -25z m-1602 8 c0 -2 -8 -10 -17 -17 -16 -13 -17 -12 -4 4 13 16 21
21 21 13z m353 -23 c-24 -2 -62 -2 -85 0 -24 2 -5 4 42 4 47 0 66 -2 43 -4z
m1358 -30 c13 -16 12 -17 -3 -4 -17 13 -22 21 -14 21 2 0 10 -8 17 -17z
m-1000 -30 c13 -16 12 -17 -3 -4 -10 7 -18 15 -18 17 0 8 8 3 21 -13z m1040
-10 c13 -16 12 -17 -3 -4 -17 13 -22 21 -14 21 2 0 10 -8 17 -17z m-764 -29
c-3 -3 -12 -4 -19 -1 -8 3 -5 6 6 6 11 1 17 -2 13 -5z m10 -100 c-3 -3 -12 -4
-19 -1 -8 3 -5 6 6 6 11 1 17 -2 13 -5z m56 -1 c-7 -2 -19 -2 -25 0 -7 3 -2 5
12 5 14 0 19 -2 13 -5z m-40 -14 c40 0 85 3 100 6 33 9 55 -12 92 -90 40 -86
51 -177 31 -274 -20 -96 -60 -187 -90 -204 -14 -8 -73 -12 -176 -11 -136 0
-167 4 -254 27 -54 15 -103 24 -109 20 -6 -4 -7 -1 -3 6 5 8 0 14 -14 18 -19
5 -21 10 -14 47 14 85 60 153 161 238 78 65 126 129 145 191 10 33 15 38 35
32 14 -3 57 -6 96 -6z m338 -202 c-10 -9 -11 -8 -5 6 3 10 9 15 12 12 3 -3 0
-11 -7 -18z m-661 -20 c0 -2 -12 -14 -27 -28 l-28 -24 24 28 c23 25 31 32 31
24z m920 -131 c0 -2 -8 -10 -17 -17 -16 -13 -17 -12 -4 4 13 16 21 21 21 13z
m-420 -210 c0 -2 -6 -9 -14 -15 -11 -9 -16 -9 -22 0 -4 8 -3 9 4 5 7 -4 12 -2
12 3 0 6 5 11 10 11 6 0 10 -2 10 -4z m-343 -22 c-3 -3 -12 -4 -19 -1 -8 3 -5
6 6 6 11 1 17 -2 13 -5z m260 0 c-3 -3 -12 -4 -19 -1 -8 3 -5 6 6 6 11 1 17
-2 13 -5z m-109 -11 c-15 -2 -42 -2 -60 0 -18 2 -6 4 27 4 33 0 48 -2 33 -4z"/>
<path d="M860 1497 c0 -2 15 -16 33 -33 l32 -29 -29 33 c-28 30 -36 37 -36 29z"/>
<path d="M1210 855 c13 -14 26 -25 28 -25 3 0 -5 11 -18 25 -13 14 -26 25 -28
25 -3 0 5 -11 18 -25z"/>
<path d="M1134 548 l-19 -23 23 19 c21 18 27 26 19 26 -2 0 -12 -10 -23 -22z"/>
<path d="M1023 456 c-15 -13 -25 -27 -22 -30 3 -3 18 8 34 24 35 36 27 40 -12
6z"/>
</g>
</svg>
